<mxfile host="app.diagrams.net" agent="Mozilla/5.0 (Windows NT 10.0; Win64; x64; rv:133.0) Gecko/20100101 Firefox/133.0" version="25.0.1">
  <diagram name="Page-1" id="dugwzRtyupv9mLhYKLsL">
    <mxGraphModel dx="1117" dy="880" grid="1" gridSize="10" guides="1" tooltips="1" connect="1" arrows="1" fold="1" page="1" pageScale="1" pageWidth="850" pageHeight="1100" math="0" shadow="0">
      <root>
        <mxCell id="0" />
        <mxCell id="1" parent="0" />
        <mxCell id="zS4T1nit1zEbbBYx1KOs-31" value="" style="edgeStyle=orthogonalEdgeStyle;rounded=0;orthogonalLoop=1;jettySize=auto;html=1;" edge="1" parent="1" source="zS4T1nit1zEbbBYx1KOs-46" target="zS4T1nit1zEbbBYx1KOs-34">
          <mxGeometry relative="1" as="geometry" />
        </mxCell>
        <mxCell id="zS4T1nit1zEbbBYx1KOs-73" style="edgeStyle=orthogonalEdgeStyle;rounded=0;orthogonalLoop=1;jettySize=auto;html=1;entryX=0.5;entryY=0;entryDx=0;entryDy=0;" edge="1" parent="1" source="zS4T1nit1zEbbBYx1KOs-32" target="zS4T1nit1zEbbBYx1KOs-46">
          <mxGeometry relative="1" as="geometry" />
        </mxCell>
        <mxCell id="zS4T1nit1zEbbBYx1KOs-32" value="Start" style="ellipse;whiteSpace=wrap;html=1;" vertex="1" parent="1">
          <mxGeometry x="365" y="10" width="120" height="80" as="geometry" />
        </mxCell>
        <mxCell id="zS4T1nit1zEbbBYx1KOs-33" value="" style="edgeStyle=orthogonalEdgeStyle;rounded=0;orthogonalLoop=1;jettySize=auto;html=1;" edge="1" parent="1" source="zS4T1nit1zEbbBYx1KOs-34" target="zS4T1nit1zEbbBYx1KOs-36">
          <mxGeometry relative="1" as="geometry" />
        </mxCell>
        <mxCell id="zS4T1nit1zEbbBYx1KOs-34" value="&lt;div&gt;input&lt;/div&gt;&lt;div&gt;area_code&lt;br&gt;&lt;/div&gt;" style="shape=parallelogram;perimeter=parallelogramPerimeter;whiteSpace=wrap;html=1;fixedSize=1;" vertex="1" parent="1">
          <mxGeometry x="365" y="280" width="120" height="60" as="geometry" />
        </mxCell>
        <mxCell id="zS4T1nit1zEbbBYx1KOs-35" value="" style="edgeStyle=orthogonalEdgeStyle;rounded=0;orthogonalLoop=1;jettySize=auto;html=1;" edge="1" parent="1" source="zS4T1nit1zEbbBYx1KOs-36" target="zS4T1nit1zEbbBYx1KOs-38">
          <mxGeometry relative="1" as="geometry" />
        </mxCell>
        <mxCell id="zS4T1nit1zEbbBYx1KOs-36" value="&lt;div&gt;input&lt;/div&gt;&lt;div&gt;phone_number&lt;br&gt;&lt;/div&gt;" style="shape=parallelogram;perimeter=parallelogramPerimeter;whiteSpace=wrap;html=1;fixedSize=1;" vertex="1" parent="1">
          <mxGeometry x="365" y="420" width="120" height="60" as="geometry" />
        </mxCell>
        <mxCell id="zS4T1nit1zEbbBYx1KOs-37" value="" style="edgeStyle=orthogonalEdgeStyle;rounded=0;orthogonalLoop=1;jettySize=auto;html=1;" edge="1" parent="1" source="zS4T1nit1zEbbBYx1KOs-38" target="zS4T1nit1zEbbBYx1KOs-41">
          <mxGeometry relative="1" as="geometry" />
        </mxCell>
        <mxCell id="zS4T1nit1zEbbBYx1KOs-38" value="&lt;div&gt;input&lt;/div&gt;&lt;div&gt;total_messages&lt;br&gt;&lt;/div&gt;" style="shape=parallelogram;perimeter=parallelogramPerimeter;whiteSpace=wrap;html=1;fixedSize=1;" vertex="1" parent="1">
          <mxGeometry x="365" y="560" width="120" height="60" as="geometry" />
        </mxCell>
        <mxCell id="zS4T1nit1zEbbBYx1KOs-39" value="" style="edgeStyle=orthogonalEdgeStyle;rounded=0;orthogonalLoop=1;jettySize=auto;html=1;" edge="1" parent="1" source="zS4T1nit1zEbbBYx1KOs-41" target="zS4T1nit1zEbbBYx1KOs-44">
          <mxGeometry relative="1" as="geometry" />
        </mxCell>
        <mxCell id="zS4T1nit1zEbbBYx1KOs-40" value="" style="edgeStyle=orthogonalEdgeStyle;rounded=0;orthogonalLoop=1;jettySize=auto;html=1;" edge="1" parent="1" source="zS4T1nit1zEbbBYx1KOs-41" target="zS4T1nit1zEbbBYx1KOs-48">
          <mxGeometry relative="1" as="geometry" />
        </mxCell>
        <mxCell id="zS4T1nit1zEbbBYx1KOs-41" value="if total_messages &amp;gt; 300" style="rhombus;whiteSpace=wrap;html=1;" vertex="1" parent="1">
          <mxGeometry x="385" y="690" width="80" height="80" as="geometry" />
        </mxCell>
        <mxCell id="zS4T1nit1zEbbBYx1KOs-42" value="" style="edgeStyle=orthogonalEdgeStyle;rounded=0;orthogonalLoop=1;jettySize=auto;html=1;" edge="1" parent="1" source="zS4T1nit1zEbbBYx1KOs-44" target="zS4T1nit1zEbbBYx1KOs-50">
          <mxGeometry relative="1" as="geometry" />
        </mxCell>
        <mxCell id="zS4T1nit1zEbbBYx1KOs-43" value="" style="edgeStyle=orthogonalEdgeStyle;rounded=0;orthogonalLoop=1;jettySize=auto;html=1;" edge="1" parent="1" source="zS4T1nit1zEbbBYx1KOs-44" target="zS4T1nit1zEbbBYx1KOs-52">
          <mxGeometry relative="1" as="geometry" />
        </mxCell>
        <mxCell id="zS4T1nit1zEbbBYx1KOs-44" value="else if total_messages &amp;gt; 100 and &amp;lt; 300" style="rhombus;whiteSpace=wrap;html=1;" vertex="1" parent="1">
          <mxGeometry x="385" y="850" width="80" height="80" as="geometry" />
        </mxCell>
        <mxCell id="zS4T1nit1zEbbBYx1KOs-46" value="total_bill = float" style="rounded=0;whiteSpace=wrap;html=1;" vertex="1" parent="1">
          <mxGeometry x="365" y="160" width="120" height="60" as="geometry" />
        </mxCell>
        <mxCell id="zS4T1nit1zEbbBYx1KOs-47" style="edgeStyle=orthogonalEdgeStyle;rounded=0;orthogonalLoop=1;jettySize=auto;html=1;entryX=0.5;entryY=0;entryDx=0;entryDy=0;" edge="1" parent="1" source="zS4T1nit1zEbbBYx1KOs-48" target="zS4T1nit1zEbbBYx1KOs-56">
          <mxGeometry relative="1" as="geometry" />
        </mxCell>
        <mxCell id="zS4T1nit1zEbbBYx1KOs-48" value="total_bill = (total_messages - 300) * 0.02 + 200 * 0.03 + 5" style="whiteSpace=wrap;html=1;" vertex="1" parent="1">
          <mxGeometry x="525" y="700" width="120" height="60" as="geometry" />
        </mxCell>
        <mxCell id="zS4T1nit1zEbbBYx1KOs-49" style="edgeStyle=orthogonalEdgeStyle;rounded=0;orthogonalLoop=1;jettySize=auto;html=1;entryX=0;entryY=0.5;entryDx=0;entryDy=0;" edge="1" parent="1" source="zS4T1nit1zEbbBYx1KOs-50" target="zS4T1nit1zEbbBYx1KOs-56">
          <mxGeometry relative="1" as="geometry" />
        </mxCell>
        <mxCell id="zS4T1nit1zEbbBYx1KOs-50" value="total_bill = (total_messages - 100) * 0.02 + 5" style="whiteSpace=wrap;html=1;" vertex="1" parent="1">
          <mxGeometry x="525" y="860" width="120" height="60" as="geometry" />
        </mxCell>
        <mxCell id="zS4T1nit1zEbbBYx1KOs-51" value="" style="edgeStyle=orthogonalEdgeStyle;rounded=0;orthogonalLoop=1;jettySize=auto;html=1;" edge="1" parent="1" source="zS4T1nit1zEbbBYx1KOs-52" target="zS4T1nit1zEbbBYx1KOs-54">
          <mxGeometry relative="1" as="geometry" />
        </mxCell>
        <mxCell id="zS4T1nit1zEbbBYx1KOs-52" value="&lt;div&gt;else total_messages &amp;lt; 100&lt;br&gt;&lt;/div&gt;" style="rhombus;whiteSpace=wrap;html=1;" vertex="1" parent="1">
          <mxGeometry x="385" y="1010" width="80" height="80" as="geometry" />
        </mxCell>
        <mxCell id="zS4T1nit1zEbbBYx1KOs-53" style="edgeStyle=orthogonalEdgeStyle;rounded=0;orthogonalLoop=1;jettySize=auto;html=1;entryX=0.5;entryY=1;entryDx=0;entryDy=0;" edge="1" parent="1" source="zS4T1nit1zEbbBYx1KOs-54" target="zS4T1nit1zEbbBYx1KOs-56">
          <mxGeometry relative="1" as="geometry" />
        </mxCell>
        <mxCell id="zS4T1nit1zEbbBYx1KOs-54" value="total_bill = total_messages * 5" style="whiteSpace=wrap;html=1;" vertex="1" parent="1">
          <mxGeometry x="525" y="1020" width="120" height="60" as="geometry" />
        </mxCell>
        <mxCell id="zS4T1nit1zEbbBYx1KOs-72" style="edgeStyle=orthogonalEdgeStyle;rounded=0;orthogonalLoop=1;jettySize=auto;html=1;entryX=0;entryY=0.5;entryDx=0;entryDy=0;" edge="1" parent="1" source="zS4T1nit1zEbbBYx1KOs-56" target="zS4T1nit1zEbbBYx1KOs-71">
          <mxGeometry relative="1" as="geometry" />
        </mxCell>
        <mxCell id="zS4T1nit1zEbbBYx1KOs-56" value="&lt;div&gt;total_bill + 14%&lt;/div&gt;" style="rounded=0;whiteSpace=wrap;html=1;" vertex="1" parent="1">
          <mxGeometry x="720" y="860" width="120" height="60" as="geometry" />
        </mxCell>
        <mxCell id="zS4T1nit1zEbbBYx1KOs-71" value="Stop" style="ellipse;whiteSpace=wrap;html=1;" vertex="1" parent="1">
          <mxGeometry x="920" y="850" width="120" height="80" as="geometry" />
        </mxCell>
      </root>
    </mxGraphModel>
  </diagram>
</mxfile>
